<svg xmlns="http://www.w3.org/2000/svg" style="display: none;">
    <symbol id="icon" viewBox="0 0 24 24" fill="currentColor">
        <path d="M19,22c0.4,0,0.8-0.3,0.9-0.7c0.2-0.5-0.1-1.1-0.6-1.3l-2.9-1l-2.6-1.7c-0.5-0.5-0.8-1.3-0.8-2V13c0-0.4-0.2-0.7-0.6-0.9   l-3.8-1.9L7,7.7V5c0-0.2,0-0.3-0.1-0.4L6.6,4H19c0.6,0,1-0.4,1-1s-0.4-1-1-1H5C4.7,2,4.3,2.2,4.1,2.5C4,2.8,4,3.1,4.1,3.4L5,5.2V8   c0,0.2,0.1,0.4,0.2,0.6l2,3c0.1,0.1,0.2,0.3,0.4,0.3l3.4,1.7v1.8c0,1.3,0.5,2.6,1.4,3.5c0,0,0.1,0.1,0.2,0.1l2.8,1.8   c0.1,0,0.1,0.1,0.2,0.1l3,1C18.8,22,18.9,22,19,22z" stroke="black" stroke-width="0.01"/>
    </symbol>
</svg>